# xmcd CD database file
#
# Track frame offsets:
#	150
#	14875
#	31760
#	50547
#	70687
#	90472
#	113070
#	132852
#	150730
#
# Disc length: 2469 seconds
#
# Revision: 0
# Processed by: cddbd v1.4PL0 Copyright (c) Steve Scherf et al.
# Submitted via: CDex 1.51
#
DISCID=6d09a309
DTITLE=Christian Kjellvander - Introducing the Past [CD2]
DYEAR=2003
DGENRE=Country
TTITLE0=Search
TTITLE1=1912
TTITLE2=Palace of Dynasty
TTITLE3=Adversity
TTITLE4=Nez Percé
TTITLE5=A Mother's Cry
TTITLE6=Fender
TTITLE7=Israel
TTITLE8=Homeward Rolling Soldier (LIVE)
EXTD=YEAR: 2003
EXTT0=
EXTT1=
EXTT2=
EXTT3=
EXTT4=
EXTT5=
EXTT6=
EXTT7=
EXTT8=
PLAYORDER=
